<svg xmlns="http://www.w3.org/2000/svg" width="150" height="50" viewBox="0,0,150,50"><path fill="#333" d="M71.24 41.16L71.24 41.16L69.57 41.20L69.48 41.11Q66.19 41.21 65.24 39.08L65.12 38.96L65.20 39.04Q66.42 38.05 67.86 36.95L67.77 36.85L67.75 36.84Q68.29 38.97 71.14 38.82L71.16 38.83L71.26 38.93Q72.04 38.88 73.07 38.65L73.02 38.60L73.01 38.59Q73.90 38.04 73.83 37.08L73.85 37.11L73.98 37.24Q73.86 36.09 72.07 35.40L71.93 35.26L68.26 33.88L68.27 33.89Q65.80 32.41 65.46 28.87L65.51 28.92L65.61 29.02Q65.28 26.75 67.45 26.18L67.49 26.22L67.48 26.21Q68.39 25.94 71.36 25.94L71.42 26.00L71.48 26.06Q76.23 25.94 77.15 28.45L77.27 28.58L77.18 28.49Q76.52 29.00 75.80 29.46L75.77 29.44L74.47 30.49L74.38 30.41Q74.01 28.63 70.78 28.40L70.73 28.36L70.74 28.36Q70.18 28.41 69.15 28.83L69.14 28.82L69.15 28.83Q68.50 29.10 68.50 30.20L68.64 30.34L68.50 30.20Q68.86 31.29 70.69 31.97L70.81 32.09L70.67 31.95Q71.78 32.37 74.44 33.47L74.53 33.56L74.37 33.40Q76.22 34.27 76.42 36.82L76.43 36.84L76.45 36.85Q76.52 37.49 76.44 38.48L76.42 38.46L76.51 38.55Q76.35 39.30 75.78 39.95L75.87 40.04L75.95 40.13Q74.29 41.17 71.25 41.17ZM76.01 43.76L76.08 43.83L75.99 43.74Q76.95 43.83 78.32 43.52L78.18 43.38L78.17 43.37Q79.42 42.87 79.23 41.65L79.14 41.56L79.12 41.54Q78.98 40.90 78.67 39.31L78.78 39.41L78.84 39.47Q78.29 36.53 76.50 35.31L76.48 35.28L76.37 35.17Q75.81 33.74 74.55 33.02L74.70 33.16L74.70 33.16Q73.47 32.77 71.00 31.82L70.97 31.79L70.85 31.67Q71.07 31.28 71.33 31.16L71.43 31.27L71.36 31.19Q71.95 30.72 72.60 30.68L72.51 30.60L72.55 30.63Q73.45 30.69 74.21 30.96L74.12 30.86L74.28 31.10L74.17 30.88L74.62 31.14L74.42 30.98L74.56 31.12Q75.59 31.54 75.78 32.80L75.79 32.80L75.78 32.79Q77.07 31.99 78.98 30.32L78.87 30.21L78.89 30.24Q78.68 29.56 77.69 28.38L77.73 28.42L77.65 28.34Q76.63 25.77 71.53 25.65L71.48 25.60L71.43 25.55Q68.24 25.49 66.26 26.06L66.22 26.02L66.30 26.09Q64.83 26.60 65.06 28.69L65.08 28.72L65.16 28.80Q65.21 29.99 66.12 32.08L66.14 32.11L66.09 32.05Q66.61 33.15 67.64 33.87L67.78 34.00L67.68 33.90Q68.46 35.49 69.75 36.17L69.80 36.21L69.73 36.14Q70.65 36.38 71.60 36.76L71.52 36.68L73.59 37.61L73.54 37.56Q73.22 38.69 71.28 38.57L71.31 38.61L71.22 38.52Q70.70 38.49 69.48 38.19L69.60 38.30L69.46 38.01L69.51 38.29L69.39 38.17Q68.57 37.85 67.93 36.36L68.00 36.44L67.95 36.38Q65.82 37.95 64.72 39.09L64.59 38.97L64.70 39.07Q64.94 39.93 65.97 40.72L66.04 40.79L65.73 40.79L65.75 40.81Q67.29 43.03 71.51 43.41L71.54 43.44L71.41 43.31Q72.81 43.56 76.04 43.79Z"/><path fill="#333" d="M117.31 33.33L117.37 33.39L117.21 33.22Q117.10 36.08 115.92 40.73L115.94 40.76L115.87 40.68Q114.11 41.24 112.51 42.04L112.50 42.03L112.57 42.10Q115.15 35.05 114.88 27.63L115.01 27.76L114.91 27.65Q114.61 20.23 111.52 13.49L111.55 13.52L111.54 13.51Q113.53 14.82 115.40 15.39L115.46 15.45L115.30 15.29Q117.41 22.24 117.41 28.90L117.59 29.08L117.41 28.90Q117.51 30.45 117.44 31.93L117.36 31.85L117.50 31.99Q118.62 30.76 123.84 25.81L123.86 25.83L123.76 25.73Q124.94 25.81 125.93 25.73L125.79 25.59L127.95 25.51L127.97 25.53Q124.73 28.45 120.43 32.22L120.60 32.39L120.56 32.36Q123.77 34.96 130.24 40.78L130.39 40.93L130.43 40.97Q127.62 39.98 124.65 39.79L124.64 39.78L124.61 39.75Q122.20 37.76 117.33 33.34ZM127.22 42.52L127.24 42.54L127.27 42.56Q131.90 43.31 135.02 45.25L135.01 45.25L134.95 45.18Q133.91 44.03 131.29 41.63L131.29 41.64L131.25 41.60Q131.42 41.62 131.69 41.73L131.69 41.73L131.77 41.82Q129.54 39.66 127.29 37.75L127.30 37.76L122.99 33.99L122.97 33.96Q127.96 29.77 130.39 26.88L130.35 26.84L130.38 26.87Q129.08 26.86 126.60 27.13L126.68 27.21L126.58 27.10Q128.22 25.69 128.90 24.86L128.93 24.89L128.96 24.92Q126.19 25.42 123.71 25.42L123.62 25.33L123.69 25.39Q122.35 26.75 119.60 29.42L119.58 29.40L119.61 29.42Q119.50 23.52 118.51 17.70L118.49 17.68L118.55 17.74Q117.85 17.58 116.37 17.31L116.34 17.28L116.30 17.24Q116.21 16.58 115.75 15.09L115.64 14.99L115.80 15.14Q113.01 14.18 110.77 12.62L110.84 12.70L110.84 12.70Q114.33 19.57 114.67 27.68L114.63 27.64L114.54 27.55Q114.87 35.46 111.87 42.69L112.01 42.84L111.99 42.82Q112.63 42.46 113.96 41.82L113.98 41.84L113.95 41.81Q113.81 42.74 113.16 44.18L113.01 44.03L113.17 44.18Q115.85 42.95 117.98 42.57L118.07 42.66L118.06 42.64Q118.61 40.11 119.10 35.85L119.19 35.93L119.05 35.79Q121.77 38.17 127.22 42.51Z"/><path d="M19 13 C86 33,91 30,132 7" stroke="#999" fill="none"/><path d="M14 23 C62 36,58 44,134 21" stroke="#777" fill="none"/><path fill="#333" d="M100.27 41.30L100.32 41.34L97.15 41.03L97.16 41.04Q94.85 41.01 94.05 40.90L94.04 40.89L93.95 40.80Q92.26 40.59 91.07 39.72L90.99 39.64L90.95 39.59Q89.79 38.32 89.56 34.97L89.57 34.97L89.40 34.80Q89.41 34.36 89.34 33.14L89.45 33.26L89.47 33.28Q89.29 32.68 89.22 31.58L89.31 31.67L89.31 31.67Q89.24 30.80 89.28 30.08L89.35 30.15L89.33 30.13Q89.51 28.18 90.54 27.42L90.51 27.39L90.60 27.48Q92.44 26.24 97.28 26.01L97.36 26.09L97.21 25.94Q99.38 25.98 100.18 25.98L100.20 26.00L100.05 25.85Q101.62 25.93 102.99 26.24L103.01 26.26L103.00 26.25Q102.47 27.55 101.94 29.38L101.80 29.24L101.93 29.37Q101.38 29.39 100.89 29.35L100.91 29.37L100.95 29.41Q100.67 29.22 100.14 29.10L100.16 29.12L99.29 28.98L99.21 28.90Q98.31 28.79 97.70 28.83L97.54 28.68L97.64 28.77Q92.81 28.74 92.20 31.56L92.31 31.67L92.35 31.70Q91.96 32.73 92.04 33.68L92.03 33.67L92.07 33.70Q92.26 36.34 93.50 37.42L93.55 37.47L93.37 37.29Q94.66 38.43 97.25 38.47L97.21 38.43L97.30 38.52Q98.78 38.55 99.50 38.25L99.41 38.16L100.55 37.77L100.52 37.74Q100.98 37.44 101.55 37.37L101.70 37.52L101.66 37.47Q101.85 39.22 102.23 40.52L102.20 40.48L102.29 40.58Q101.99 40.89 100.21 41.23ZM103.41 44.13L103.53 44.26L103.52 44.25Q103.84 44.22 104.68 44.30L104.65 44.27L104.67 44.29Q105.25 44.26 105.59 43.69L105.73 43.83L105.70 43.79Q104.53 41.75 104.03 39.66L103.95 39.57L104.03 39.65Q103.65 39.58 103.19 39.58L103.13 39.51L103.12 39.50Q102.82 39.62 102.44 39.81L102.44 39.81L102.30 39.67Q101.96 38.42 101.81 37.01L101.92 37.12L101.89 37.09Q101.22 36.96 100.00 37.53L100.09 37.61L100.05 37.58Q98.77 38.08 98.27 38.08L98.26 38.07L98.33 38.14Q97.84 38.14 97.23 38.10L97.36 38.23L97.21 38.08Q96.28 38.03 94.30 37.46L94.32 37.48L94.27 37.43Q94.11 36.89 94.15 35.75L94.06 35.66L94.00 35.60Q94.28 31.46 99.23 30.93L99.24 30.94L99.20 30.90Q99.86 30.88 101.23 31.22L101.32 31.30L101.34 31.33Q102.71 31.67 103.43 31.63L103.28 31.47L103.27 31.47Q103.80 29.33 104.48 27.50L104.50 27.52L104.54 27.56Q104.11 27.39 103.73 27.32L103.64 27.24L102.96 27.24L102.91 27.19Q103.13 26.73 103.51 25.85L103.41 25.74L103.60 25.94Q101.88 25.40 100.32 25.40L100.36 25.43L100.39 25.46Q98.11 25.59 93.74 25.97L93.67 25.90L93.63 25.86Q91.73 26.06 90.17 27.05L90.07 26.95L90.18 27.06Q89.02 28.06 89.02 29.97L88.95 29.90L88.83 29.79Q88.88 30.25 88.99 31.47L89.05 31.52L89.09 31.56Q89.01 32.44 88.98 33.05L89.01 33.08L89.06 33.13Q89.21 35.15 89.93 38.88L89.76 38.71L89.83 38.78Q90.12 39.53 90.62 40.02L90.80 40.21L90.86 40.27L90.94 40.30L90.98 40.35Q92.06 42.53 95.98 43.14L95.96 43.12L95.95 43.10Q99.17 43.66 101.84 43.93L101.81 43.90L101.79 43.88Q102.56 43.93 103.48 44.20Z"/><path fill="#444" d="M46.18 29.74L46.24 29.81L46.09 29.66Q41.91 29.48 41.34 32.52L41.31 32.49L41.35 32.53Q41.30 33.74 41.49 34.61L41.35 34.47L41.49 34.61Q41.40 35.28 41.86 36.69L41.95 36.78L41.88 36.71Q43.00 39.93 46.32 39.78L46.26 39.72L46.28 39.74Q48.21 39.73 49.54 38.17L49.68 38.31L49.64 38.27Q50.84 36.77 50.84 34.71L50.81 34.68L50.90 34.77Q50.89 34.04 50.74 32.97L50.89 33.12L50.90 33.13Q50.80 32.19 50.38 31.51L50.30 31.43L50.27 31.40Q48.71 29.80 46.12 29.69ZM50.98 48.18L51.04 48.23L50.98 48.17Q49.12 48.71 41.05 49.09L41.01 49.06L41.09 49.13Q39.40 49.19 37.76 48.35L37.80 48.39L37.70 48.29Q38.62 47.42 40.44 45.63L40.49 45.68L40.43 45.62Q42.87 46.69 44.96 46.50L44.84 46.38L44.94 46.47Q47.82 46.19 48.66 45.93L48.65 45.92L48.63 45.90Q50.83 45.17 50.83 43.38L50.91 43.47L50.95 43.50Q50.82 43.14 50.74 42.91L50.89 43.06L50.85 41.54L50.73 41.42Q50.76 40.68 50.76 39.88L50.63 39.75L50.77 39.89Q49.32 42.06 45.93 42.06L45.96 42.09L46.04 42.17Q42.15 42.16 40.51 39.95L40.49 39.93L40.47 39.91Q39.40 38.43 38.60 34.01L38.48 33.88L38.45 33.86Q38.21 32.40 38.21 30.99L38.25 31.03L38.24 31.02Q38.23 29.22 39.15 28.23L39.07 28.16L39.06 28.14Q40.91 26.91 45.56 26.91L45.50 26.86L47.15 26.94L47.20 27.00Q50.39 27.33 51.72 29.28L51.68 29.23L51.74 29.29Q51.98 28.51 52.40 26.87L52.43 26.89L52.31 26.78Q54.28 26.54 56.04 25.82L55.98 25.77L55.91 25.70Q53.19 31.73 53.19 38.96L53.24 39.01L53.37 39.14Q53.36 41.79 53.74 44.42L53.72 44.40L53.74 44.43Q53.90 45.08 53.83 45.77L53.80 45.74L53.82 45.76Q53.64 47.15 52.43 47.91L52.29 47.77L52.37 47.85Q51.96 48.20 51.12 48.32ZM53.97 51.13L53.94 51.10L54.05 51.20Q55.48 51.23 56.24 50.27L56.16 50.19L56.22 50.25Q56.49 49.23 56.38 48.51L56.48 48.61L56.40 48.54Q56.34 47.94 56.15 47.18L56.10 47.13L56.16 47.19Q54.85 41.88 55.20 36.63L55.39 36.82L55.20 36.63Q55.57 31.22 57.70 26.38L57.84 26.53L55.73 27.46L55.61 27.34Q55.94 26.83 56.17 26.26L56.23 26.32L56.61 25.07L56.52 24.98Q54.35 26.11 52.14 26.53L52.07 26.46L52.09 26.48Q51.67 27.24 51.52 28.27L51.56 28.32L51.67 28.43Q49.41 26.36 45.38 26.36L45.50 26.47L43.60 26.32L43.67 26.40Q40.37 26.33 38.69 27.74L38.74 27.78L38.70 27.74Q37.90 28.85 37.94 30.76L37.92 30.74L37.91 30.73Q37.96 33.21 38.99 37.48L38.99 37.48L39.04 37.53Q39.47 39.41 40.69 40.82L40.65 40.78L40.88 41.01L41.10 41.22L41.07 41.20Q42.21 43.51 44.79 44.05L44.79 44.04L44.80 44.05Q46.13 44.28 47.58 44.32L47.62 44.36L47.64 44.38Q49.28 44.30 50.35 43.92L50.46 44.04L50.36 43.94Q49.73 45.48 47.07 45.83L47.05 45.81L47.07 45.83Q46.08 46.06 45.40 46.06L45.39 46.05L45.00 46.04L44.94 45.98Q42.25 46.11 40.57 45.15L40.61 45.19L38.79 46.80L38.88 46.89Q38.05 47.73 37.21 48.68L37.22 48.69L37.08 48.55Q38.22 49.23 39.21 49.42L39.07 49.28L38.21 50.18L38.28 50.24Q40.99 51.32 46.63 51.32L46.52 51.21L46.86 51.32L46.71 51.17Q50.40 51.25 53.98 51.13ZM48.16 32.14L48.12 32.10L48.13 32.11Q49.31 31.92 50.22 32.34L50.21 32.33L50.26 32.38Q50.37 32.79 50.44 33.48L50.59 33.62L50.52 33.56Q50.49 33.79 50.45 34.71L50.61 34.86L50.43 34.68Q50.49 36.72 49.39 38.02L49.30 37.93L49.29 37.91Q48.22 39.44 46.32 39.40L46.26 39.34L46.31 39.39Q44.77 39.22 43.93 38.80L43.92 38.79L44.04 38.92Q43.66 37.77 43.62 36.74L43.50 36.62L43.48 36.60Q43.45 32.35 48.06 32.04Z"/><path d="M15 28 C96 42,71 18,145 22" stroke="#222" fill="none"/><path fill="#222" d="M22.93 18.44L22.98 18.50L23.02 18.54Q22.16 18.79 22.01 19.58L22.04 19.62L22.10 24.81L22.14 24.85Q23.14 24.71 25.35 24.44L25.49 24.59L25.49 24.59Q25.44 25.00 25.41 25.83L25.38 25.81L25.42 25.85Q25.30 26.52 25.30 26.98L25.40 27.08L23.81 27.17L23.81 27.17Q22.86 27.09 21.98 27.09L22.14 27.25L21.96 27.08Q22.15 31.45 22.08 39.83L21.90 39.65L22.06 39.81Q19.70 39.74 18.22 40.42L18.32 40.52L18.20 40.40Q19.31 34.28 19.19 27.05L19.16 27.02L19.30 27.15Q18.67 27.13 17.37 26.86L17.29 26.78L17.33 26.82Q17.38 25.88 17.19 23.94L17.11 23.86L17.10 23.85Q18.27 24.41 19.22 24.60L19.18 24.56L19.24 24.61Q19.12 23.89 18.82 21.42L18.75 21.35L18.87 21.47Q18.52 19.29 18.52 18.34L18.67 18.49L18.69 18.51Q18.62 16.77 20.03 16.19L19.94 16.11L20.00 16.16Q20.75 15.74 25.59 14.90L25.60 14.91L25.77 15.08Q26.48 14.84 27.32 14.72L27.33 14.74L27.34 14.75Q27.17 15.57 27.02 16.45L26.88 16.31L26.59 17.88L26.57 17.86Q25.88 17.67 25.39 17.78L25.51 17.91L25.52 17.92Q24.86 17.86 22.96 18.47ZM28.30 19.52L28.42 19.63L28.38 19.60Q28.80 17.46 29.41 14.91L29.37 14.88L29.42 14.93Q28.69 15.15 27.39 15.75L27.41 15.77L27.83 14.09L27.74 14.00Q26.67 14.34 24.19 14.88L24.10 14.78L24.11 14.79Q22.86 14.80 19.66 15.72L19.75 15.80L19.70 15.75Q18.25 16.28 18.25 18.14L18.11 18.01L18.08 17.97Q18.22 18.42 18.30 18.76L18.23 18.69L18.17 18.64Q18.46 20.03 18.58 21.37L18.56 21.35L18.85 24.11L18.81 24.07Q17.34 23.59 16.69 23.13L16.73 23.17L16.80 23.25Q16.94 24.22 16.98 25.25L16.88 25.15L16.98 27.11L17.13 27.26Q17.77 27.37 18.57 27.45L18.61 27.48L18.63 29.60L18.90 29.49L18.99 29.59Q18.80 35.63 17.81 41.08L17.80 41.07L17.79 41.06Q18.84 40.63 20.02 40.36L19.96 40.30L19.87 42.46L19.87 42.45Q21.07 42.14 22.37 42.10L22.36 42.09L22.26 41.99Q23.67 42.14 24.93 42.41L24.76 42.24L24.91 42.39Q23.93 37.26 23.93 29.31L23.94 29.31L24.07 29.45Q25.12 29.39 27.21 29.47L27.21 29.46L27.20 27.59L27.22 27.61Q27.29 26.72 27.32 25.77L27.27 25.72L27.18 25.62Q26.79 25.81 25.73 26.08L25.59 25.94L25.58 25.93Q25.75 25.42 25.87 24.09L25.76 23.98L25.80 24.02Q25.00 24.29 24.20 24.37L24.17 24.33L24.24 24.40Q24.15 22.91 24.27 21.50L24.22 21.46L24.27 21.51Q24.33 20.76 24.86 20.42L24.99 20.54L24.97 20.53Q25.93 19.85 26.75 19.78L26.70 19.73L26.81 19.84Q27.56 19.69 28.40 19.62Z"/></svg>